<?xml version="1.0" encoding="UTF-8" standalone="no"?>
<!-- Created with Inkscape (http://www.inkscape.org/) -->

<svg
   xmlns:dc="http://purl.org/dc/elements/1.1/"
   xmlns:cc="http://creativecommons.org/ns#"
   xmlns:rdf="http://www.w3.org/1999/02/22-rdf-syntax-ns#"
   xmlns:svg="http://www.w3.org/2000/svg"
   xmlns="http://www.w3.org/2000/svg"
   xmlns:sodipodi="http://sodipodi.sourceforge.net/DTD/sodipodi-0.dtd"
   xmlns:inkscape="http://www.inkscape.org/namespaces/inkscape"
   width="40"
   height="60"
   id="svg1901"
   sodipodi:version="0.32"
   inkscape:version="0.48.1 "
   sodipodi:docname="flag.svg"
   version="1.1">
  <defs
     id="defs1903" />
  <sodipodi:namedview
     id="base"
     pagecolor="#ffffff"
     bordercolor="#666666"
     borderopacity="1.0"
     inkscape:pageopacity="0.0"
     inkscape:pageshadow="2"
     inkscape:zoom="3.959798"
     inkscape:cx="-1.3147772"
     inkscape:cy="60.909233"
     inkscape:document-units="px"
     inkscape:current-layer="layer1"
     inkscape:window-width="1280"
     inkscape:window-height="738"
     inkscape:window-x="-8"
     inkscape:window-y="-8"
     showgrid="false"
     inkscape:window-maximized="1" />
  <metadata
     id="metadata1906">
    <rdf:RDF>
      <cc:Work
         rdf:about="">
        <dc:format>image/svg+xml</dc:format>
        <dc:type
           rdf:resource="http://purl.org/dc/dcmitype/StillImage" />
        <dc:title />
      </cc:Work>
    </rdf:RDF>
  </metadata>
  <g
     inkscape:label="Taso 1"
     inkscape:groupmode="layer"
     id="layer1"
     transform="translate(0,-992.3622)">
    <path
       sodipodi:type="arc"
       style="fill:#280b0b;fill-opacity:1;fill-rule:nonzero;stroke:#000000;stroke-width:1.55999994;stroke-linecap:round;stroke-linejoin:round;stroke-miterlimit:4;stroke-opacity:1;stroke-dasharray:none"
       id="path3814"
       sodipodi:cx="23.667891"
       sodipodi:cy="56.306107"
       sodipodi:rx="7.7793527"
       sodipodi:ry="2.7244091"
       d="m 31.447243,56.306107 a 7.7793527,2.7244091 0 1 1 -15.558705,0 7.7793527,2.7244091 0 1 1 15.558705,0 z"
       transform="translate(0,992.3622)" />
    <rect
       style="fill:none;stroke:none"
       id="rect2986"
       width="44.99662"
       height="63.160347"
       x="3.0095191"
       y="993.37903"
       ry="0.18028857" />
    <path
       style="fill:#ffffff;stroke:#000000;stroke-width:0.52283686;stroke-linecap:butt;stroke-linejoin:miter;stroke-miterlimit:4;stroke-opacity:1;stroke-dasharray:none"
       d="m 26.405597,1047.6788 -5.840907,3.0286 -16.7763833,-52.92057 4.3265978,-0.97352 c 0.1029566,-0.14573 18.2906925,50.86549 18.2906925,50.86549 z"
       id="path2982"
       inkscape:connector-curvature="0"
       sodipodi:nodetypes="ccccc" />
    <path
       style="fill:#ff0000;stroke:#000000;stroke-width:0.24038477;stroke-linecap:butt;stroke-linejoin:miter;stroke-miterlimit:4;stroke-opacity:1;stroke-dasharray:none"
       d="m 8.4177669,997.01163 9.5617811,-3.35317 c 0.507757,0.0517 1.008799,0.009 1.514309,-0.018 0.328907,-0.0174 0.655007,-0.0181 0.984301,-0.0181 0.288025,0 0.573433,-0.0256 0.854503,0.0541 0.06688,0.019 0.43965,0.17286 0.508376,0.19831 0.296459,0.1098 0.594966,0.21589 0.897769,0.30647 0.53244,0.15928 1.046209,0.30171 1.535942,0.56788 0.157136,0.0854 0.282407,0.20612 0.421843,0.31548 0.112814,0.0885 0.227935,0.16458 0.346128,0.24338 0.224505,0.14967 0.401791,0.37242 0.627357,0.5228 0.07925,0.0528 0.172481,0.0807 0.248779,0.13521 0.05814,0.0415 0.09996,0.0873 0.162247,0.1262 0.09952,0.0622 -0.01821,-0.028 0.09735,0.027 0.03031,0.0144 0.06022,0.0592 0.08653,0.0811 0.07092,0.0591 0.17398,0.0846 0.24878,0.12619 0.01912,0.0106 0.0122,0.0366 0.03245,0.0451 0.03029,0.0126 0.09453,-1.2e-4 0.118982,0.027 0.04913,0.0546 0.288415,0.18427 0.378576,0.23435 0.04475,0.0248 0.06834,0.084 0.108165,0.11718 0.04064,0.0339 0.120391,0.0561 0.151431,0.0992 0.06864,0.0953 0.251341,0.2585 0.356945,0.32452 0.184756,0.11545 0.38217,0.19125 0.573274,0.29744 0.268979,0.14944 0.53189,0.26793 0.83287,0.35156 0.119313,0.0332 0.266224,0.0192 0.389394,0.0272 0.09534,0.006 0.185147,0.0387 0.281228,0.045 0.324918,0.0208 0.658375,0 0.984302,0 0.432169,0 0.864674,0.018 1.297979,0.018 0.168145,0 0.352405,0.0212 0.519192,0 0.145302,-0.0188 0.291442,-0.0714 0.432659,-0.10819 0.238107,-0.062 0.486479,-0.0752 0.724706,-0.14421 0.153057,-0.0444 0.301997,-0.10563 0.454292,-0.15323 0.141915,-0.0444 0.272533,-0.10276 0.411027,-0.15324 0.122198,-0.0446 0.25849,-0.0701 0.378578,-0.11717 0.251483,-0.0986 0.486724,-0.27816 0.724705,-0.40563 0.146639,-0.0786 0.291277,-0.15504 0.432659,-0.24337 0.05998,-0.0375 0.105252,-0.0776 0.162248,-0.1172 0.01911,-0.0133 0.03861,-0.0408 0.05408,-0.0451 0.0075,-0.002 0.02945,-0.009 0.02163,-0.009 -0.01123,0 -0.02163,0.006 -0.03245,0.009 -0.06841,0.403 0.106784,0.85212 0.0649,1.27097 -0.02179,0.21785 -0.109283,0.4123 -0.162247,0.62197 -0.03738,0.14792 -0.05656,0.3008 -0.08653,0.45068 -0.05281,0.26405 -0.13729,0.52108 -0.194696,0.78418 -0.02918,0.13375 -0.04234,0.27217 -0.07572,0.40563 -0.0319,0.12768 -0.09546,0.24288 -0.129798,0.36958 -0.07759,0.2863 -0.154246,0.566 -0.248779,0.8473 -0.121699,0.3622 -0.223642,0.7312 -0.378577,1.0817 -0.07297,0.165 -0.178346,0.3152 -0.270413,0.4687 -0.184041,0.3067 -0.388575,0.6057 -0.61654,0.8834 -0.281257,0.3425 -0.63145,0.6258 -0.951852,0.9284 -0.111888,0.1057 -0.213537,0.2196 -0.335311,0.3155 -0.230861,0.1817 -0.496112,0.3163 -0.746338,0.4687 -0.191548,0.1166 -0.385241,0.2688 -0.594907,0.3515 -0.123412,0.049 -0.255716,0.081 -0.378578,0.1353 -0.09312,0.041 -0.184861,0.092 -0.281228,0.1262 -0.151844,0.053 -0.06262,0 -0.194697,0.063 -0.06325,0.031 -0.129401,0.074 -0.194697,0.099 -0.08284,0.031 -0.194112,0.031 -0.281229,0.054 -0.160842,0.042 -0.320517,0.1049 -0.486743,0.1262 -0.170853,0.022 -0.347503,0 -0.519191,0.018 -0.353874,0.028 -0.704947,0.032 -1.060017,0.045 -0.125848,0 -0.243161,0.041 -0.36776,0.054 -0.183675,0.02 -0.367504,0.033 -0.551641,0.045 -0.210689,0.014 -0.427091,0 -0.638174,0 -0.272858,0 -0.549545,0.014 -0.822053,0 -0.131912,-0.01 -0.25874,-0.043 -0.389394,-0.054 -0.372298,-0.031 -0.751671,0.019 -1.124916,0 -0.267591,-0.014 -0.531255,-0.087 -0.80042,-0.099 -0.457849,-0.021 -0.937396,-0.022 -1.395328,0 -0.09983,0 -0.1934,0.036 -0.292046,0.045 -0.118178,0.011 -0.238818,0 -0.356944,0.01 -0.114259,0.01 -0.227271,0.057 -0.335311,0.09 -0.134154,0.041 -0.285172,-0.014 -0.421844,0.027 -0.07502,0.023 -0.153373,0.063 -0.227145,0.081 -0.05588,0.014 -0.125551,0.01 -0.183881,0.018 -0.145123,0.032 -0.271521,0.098 -0.411027,0.1443 -0.223364,0.074 -0.466087,0.1365 -0.68144,0.2343 -0.120899,0.055 -0.222925,0.1427 -0.346127,0.1893 -0.09652,0.036 -0.01155,-0.025 -0.118981,0.027 -0.08693,0.042 -0.162842,0.099 -0.24878,0.1442 -0.117512,0.062 -0.244521,0.098 -0.356945,0.1713 -0.08519,0.055 -0.15941,0.1418 -0.237962,0.2073 -0.126569,0.1055 -0.268987,0.171 -0.400211,0.2704 -0.100437,0.076 -0.196881,0.1612 -0.302862,0.2254 -0.128637,0.078 -0.303185,0.1169 -0.443476,0.1712 -0.383092,0.1483 -0.763428,0.2981 -1.135732,0.4687 -0.244112,0.1119 -0.45857,0.2637 -0.692255,0.3877 -0.167234,0.089 -0.523796,0.1094 -0.713889,0.1622 -0.08757,0.024 -0.161917,0.1062 -0.237962,0.1442 -0.04109,0.02 -0.107242,0.011 -0.151431,0.027 -0.156734,0.056 -0.466618,0.1983 -0.594908,0.1983 z"
       id="path2984"
       inkscape:connector-curvature="0" />
  </g>
</svg>
