<?xml version="1.0" encoding="UTF-8" standalone="no"?>
<!-- Created with Inkscape (http://www.inkscape.org/) -->

<svg
   xmlns:dc="http://purl.org/dc/elements/1.1/"
   xmlns:cc="http://creativecommons.org/ns#"
   xmlns:rdf="http://www.w3.org/1999/02/22-rdf-syntax-ns#"
   xmlns:svg="http://www.w3.org/2000/svg"
   xmlns="http://www.w3.org/2000/svg"
   xmlns:sodipodi="http://sodipodi.sourceforge.net/DTD/sodipodi-0.dtd"
   xmlns:inkscape="http://www.inkscape.org/namespaces/inkscape"
   width="210mm"
   height="297mm"
   id="svg1901"
   sodipodi:version="0.32"
   inkscape:version="0.48.1 "
   sodipodi:docname="lippu.svg"
   version="1.1">
  <defs
     id="defs1903" />
  <sodipodi:namedview
     id="base"
     pagecolor="#ffffff"
     bordercolor="#666666"
     borderopacity="1.0"
     inkscape:pageopacity="0.0"
     inkscape:pageshadow="2"
     inkscape:zoom="0.35"
     inkscape:cx="-107.14286"
     inkscape:cy="520"
     inkscape:document-units="px"
     inkscape:current-layer="layer1"
     inkscape:window-width="877"
     inkscape:window-height="739"
     inkscape:window-x="0"
     inkscape:window-y="10"
     showgrid="false"
     inkscape:window-maximized="1" />
  <metadata
     id="metadata1906">
    <rdf:RDF>
      <cc:Work
         rdf:about="">
        <dc:format>image/svg+xml</dc:format>
        <dc:type
           rdf:resource="http://purl.org/dc/dcmitype/StillImage" />
        <dc:title></dc:title>
      </cc:Work>
    </rdf:RDF>
  </metadata>
  <g
     inkscape:label="Taso 1"
     inkscape:groupmode="layer"
     id="layer1"
     style="opacity:1">
    <rect
       style="fill:none;fill-opacity:1;fill-rule:nonzero;stroke:none"
       id="rect2986"
       width="748.74329"
       height="1050.9875"
       x="-2.2281749"
       y="3.2282875"
       ry="3" />
    <path
       style="fill:#ffffff;stroke:#000000;stroke-width:8.7;stroke-linecap:butt;stroke-linejoin:miter;stroke-opacity:1;stroke-miterlimit:4;stroke-dasharray:none"
       d="M 406.34086,948.02219 309.14823,998.4192 29.989384,117.82148 101.98393,101.62245 c 1.71319,-2.425244 304.35693,846.39974 304.35693,846.39974 z"
       id="path2982"
       inkscape:connector-curvature="0"
       sodipodi:nodetypes="ccccc" />
    <path
       style="fill:#ff0000;stroke:#000000;stroke-width:4;stroke-linecap:butt;stroke-linejoin:miter;stroke-opacity:1;stroke-miterlimit:4;stroke-dasharray:none"
       d="M 107.02355,104.92225 266.13149,49.125562 c 8.44907,0.860648 16.78641,0.145088 25.19809,-0.299982 5.473,-0.289581 10.8993,-0.299982 16.37876,-0.299982 4.79272,0 9.54191,-0.425227 14.21892,0.899946 1.11283,0.315307 7.31577,2.876248 8.45936,3.299805 4.93308,1.827095 9.90024,3.592392 14.93887,5.099697 8.8598,2.650412 17.40891,5.02048 25.55806,9.449439 2.61474,1.421077 4.69925,3.429878 7.01947,5.249688 1.87721,1.472349 3.79283,2.738586 5.75956,4.04976 3.73576,2.490544 6.6858,6.197168 10.43921,8.699483 1.31876,0.879187 2.87008,1.342987 4.13969,2.249866 0.96753,0.691109 1.66327,1.452037 2.69979,2.099876 1.65594,1.034975 -0.303,-0.4657 1.61988,0.449973 0.50438,0.240183 1.00199,0.984996 1.43989,1.34992 1.18005,0.98339 2.89503,1.408387 4.13969,2.099875 0.31826,0.176818 0.20292,0.609523 0.53996,0.749956 0.50414,0.210065 1.573,-0.0021 1.97985,0.449973 0.8176,0.908463 4.79924,3.066266 6.29952,3.899768 0.74469,0.413722 1.13711,1.397587 1.79986,1.949887 0.67628,0.56357 2.0033,0.93251 2.51981,1.6499 1.14211,1.58629 4.18231,4.30138 5.93955,5.39968 3.07435,1.9215 6.35931,3.18303 9.53928,4.94971 4.47582,2.4866 8.85064,4.45843 13.85895,5.84965 1.98537,0.5515 4.42997,0.31859 6.47951,0.44997 1.58653,0.1017 3.08085,0.64747 4.67964,0.74996 5.40662,0.34658 10.95535,0 16.37876,0 7.1913,0 14.38818,0.29998 21.59836,0.29998 2.79794,0 5.86403,0.35581 8.63935,0 2.41783,-0.30998 4.84959,-1.18794 7.19945,-1.79989 3.96209,-1.03182 8.095,-1.25083 12.05909,-2.39986 2.54687,-0.73824 5.02523,-1.7579 7.55943,-2.54985 2.36145,-0.73797 4.53494,-1.70964 6.83948,-2.54985 2.03337,-0.74135 4.30126,-1.16624 6.29952,-1.94988 4.18468,-1.64108 8.09909,-4.62814 12.05909,-6.7496 2.44008,-1.30721 4.84685,-2.579363 7.19945,-4.049762 0.99808,-0.623806 1.75138,-1.291251 2.6998,-1.949884 0.31802,-0.22085 0.64238,-0.678412 0.89993,-0.749956 0.12525,-0.03479 0.48996,-0.149991 0.35997,-0.149991 -0.1868,0 -0.35997,0.09999 -0.53996,0.149991 -1.13827,6.705872 1.77688,14.179072 1.07992,21.148742 -0.36251,3.62513 -1.81846,6.8607 -2.69979,10.34939 -0.62198,2.46203 -0.94116,5.00584 -1.4399,7.49955 -0.87881,4.39413 -2.28451,8.67099 -3.23975,13.04923 -0.48548,2.22517 -0.7046,4.52834 -1.2599,6.7496 -0.53088,2.12354 -1.58851,4.04113 -2.15984,6.14963 -1.29109,4.76481 -2.56665,9.41745 -4.13969,14.09916 -2.02507,6.02711 -3.72139,12.16735 -6.29952,17.99894 -1.21419,2.74643 -2.96767,5.24618 -4.49966,7.79953 -3.06244,5.10415 -6.46589,10.07897 -10.25922,14.69913 -4.68011,5.70023 -10.50732,10.41371 -15.8388,15.44908 -1.86183,1.75843 -3.55325,3.65487 -5.57958,5.24969 -3.84152,3.02347 -8.2553,5.26387 -12.41906,7.79954 -3.18735,1.94105 -6.4104,4.47245 -9.89925,5.84965 -2.05357,0.81063 -4.25511,1.34791 -6.29952,2.24987 -1.5495,0.68361 -3.07609,1.53721 -4.67964,2.09987 -2.52668,0.88657 -1.04205,-0.0489 -3.23976,1.04994 -1.05255,0.52628 -2.15322,1.23833 -3.23975,1.6499 -1.37838,0.52212 -3.23002,0.52244 -4.67965,0.89995 -2.67641,0.69699 -5.3334,1.74525 -8.09939,2.09987 -2.84299,0.3645 -5.78245,0.0732 -8.63934,0.29999 -5.88845,0.46734 -11.73031,0.52615 -17.63866,0.74995 -2.09412,0.0793 -4.04621,0.67458 -6.11954,0.89995 -3.05634,0.33222 -6.11526,0.55354 -9.1793,0.74995 -3.50586,0.22474 -7.10678,0 -10.6192,0 -4.54035,0 -9.14443,0.22229 -13.67896,0 -2.19501,-0.1076 -4.30543,-0.71877 -6.47951,-0.89994 -6.19503,-0.51626 -12.50779,0.32348 -18.71858,0 -4.45272,-0.23192 -8.84009,-1.44254 -13.31899,-1.6499 -7.6186,-0.35272 -15.59826,-0.37354 -23.21824,0 -1.6612,0.0814 -3.21817,0.59796 -4.85964,0.74995 -1.96649,0.18209 -3.97394,-0.0138 -5.93955,0.14999 -1.90126,0.15844 -3.78178,0.95512 -5.57957,1.49991 -2.23232,0.67647 -4.74526,-0.23919 -7.01947,0.44998 -1.24827,0.37827 -2.55214,1.04302 -3.77971,1.34992 -0.92981,0.23245 -2.08916,0.0843 -3.05977,0.29998 -2.41484,0.53664 -4.51811,1.62605 -6.83948,2.39986 -3.71678,1.23894 -7.75569,2.27089 -11.33915,3.89976 -2.01177,0.91446 -3.70948,2.37326 -5.75956,3.14982 -1.60609,0.60837 -0.19213,-0.41907 -1.97985,0.44997 -1.44655,0.70319 -2.70968,1.64151 -4.13969,2.39986 -1.9554,1.03697 -4.06882,1.6373 -5.93955,2.84983 -1.41763,0.91885 -2.65259,2.36052 -3.9597,3.44979 -2.1061,1.75512 -4.47594,2.84551 -6.65949,4.49974 -1.67127,1.26613 -3.27611,2.68096 -5.03962,3.74977 -2.14053,1.29732 -5.04501,1.94662 -7.37944,2.84983 -6.37465,2.46643 -12.70344,4.96006 -18.89857,7.79954 -4.06202,1.86179 -7.63061,4.38749 -11.51912,6.44962 -2.78278,1.47574 -8.71596,1.82117 -11.8791,2.69984 -1.45709,0.40475 -2.69431,1.76715 -3.9597,2.39986 -0.6838,0.3419 -1.7845,0.18735 -2.51981,0.44997 -2.60805,0.93146 -7.76451,3.2998 -9.89925,3.2998 z"
       id="path2984"
       inkscape:connector-curvature="0" />
  </g>
</svg>
